<?xml version="1.0" encoding="utf-8"?>
<!-- Generator: Adobe Illustrator 23.0.5, SVG Export Plug-In . SVG Version: 6.00 Build 0)  -->
<svg version="1.1" id="Layer_1" xmlns="http://www.w3.org/2000/svg" xmlns:xlink="http://www.w3.org/1999/xlink" x="0px" y="0px"
	 viewBox="0 0 192.7 150.4" style="enable-background:new 0 0 192.7 150.4;" xml:space="preserve">
<style type="text/css">
	.st0{fill:#B1B0B0;}
	.st1{fill:#F9D1BD;}
	.st2{fill:#0BF3F2;}
	.st3{fill:#EB5A10;}
	.st4{fill:#565455;}
	.st5{fill:#575455;}
	.st6{fill:#EB5B10;}
	.st7{fill:#FFFFFF;}
</style>
<g>
	<path class="st0" d="M128.4,103.2C128.4,103.3,128.4,103.3,128.4,103.2c-0.7,0.1-1.4,0.1-2.1,0.1c0,0,0,0,0-0.1
		C127,103.2,127.7,103.2,128.4,103.2z"/>
	<path class="st1" d="M101.7-0.3C101.7-0.3,101.7-0.3,101.7-0.3c-0.4,0.1-0.9,0.1-1.4,0.1c0,0,0,0,0-0.1
		C100.8-0.3,101.3-0.3,101.7-0.3z"/>
	<path class="st2" d="M46.5,73.4c0.2-7.8,2.8-14.6,8.4-20.2c3.9-4,8.7-6.4,14.2-7.4c1.5-0.3,3-0.4,4.5-0.5c0.4,0,0.4,0,0.4,0.4
		c0.2,2.7,0.3,5.5,0.5,8.2c0.1,1.3,0.2,2.5,0.2,3.8c0,0.2-0.1,0.3-0.3,0.3c-1.5,0.2-3,0.5-4.3,1.1c-5,2.1-8.2,5.8-9.6,11
		c-1.2,4.2-0.8,8.3,1,12.3c0.1,0.2,0.2,0.5,0.4,0.7c0.2,0.3,0.2,0.3-0.1,0.6c-1.2,0.8-2.4,1.6-3.7,2.3c-2.1,1.3-4.2,2.7-6.2,4
		c-0.3,0.2-0.3,0.2-0.5-0.1c-2.2-3.7-3.7-7.6-4.3-11.9C46.6,76.6,46.5,75,46.5,73.4z"/>
	<path class="st3" d="M100.4-0.3c0.5,0,0.9,0,1.4,0c6.3,0.3,12.1,2.2,17.2,5.9c5.4,4,9.2,9.2,10.9,15.7c0.8,3.1,1.1,6.2,0.8,9.4
		c-0.3,3.9-1.5,7.5-3.4,10.9c-0.1,0.2-0.3,0.2-0.4,0.1c-2.8-1.4-5.7-2.8-8.5-4.3c-0.7-0.4-1.5-0.7-2.2-1.1c-0.3-0.1-0.3-0.2-0.2-0.5
		c1-2.2,1.4-4.5,1.4-6.9c-0.1-3.1-1-5.8-2.7-8.4c-2.8-4.4-6.9-6.9-11.9-7.9c-0.7-0.1-1.4-0.2-2.2-0.3c-0.2,0-0.3-0.1-0.3-0.4
		c-0.1-3.1-0.3-6.3-0.4-9.4c0-0.8-0.1-1.6-0.1-2.4c0-0.4,0-0.4,0.4-0.5C100.1-0.3,100.2-0.3,100.4-0.3z"/>
	<path class="st4" d="M128.4,103.2c-0.7,0-1.4,0-2.1,0c-8.9-0.4-16-4.2-21.3-11.3c-0.5-0.6-0.9-1.3-1.3-1.9
		c-0.1-0.2-0.1-0.3,0.1-0.5c3.4-2.2,6.8-4.4,10.1-6.7c0.2-0.2,0.3-0.1,0.5,0.1c1.3,1.8,2.9,3.3,4.8,4.4c2.1,1.2,4.3,2,6.7,2.1
		c6.5,0.4,11.8-2,15.7-7.2c0.2-0.3,0.4-0.6,0.6-0.8c0.2-0.3,0.3-0.3,0.7-0.2c2.4,1.2,4.8,2.5,7.2,3.7c1.1,0.6,2.2,1.2,3.3,1.7
		c0.3,0.1,0.3,0.2,0.1,0.5c-3.4,6.1-8.3,10.6-14.7,13.5c-2.8,1.3-5.8,2.1-8.9,2.3C129.5,103.2,128.9,103.2,128.4,103.2z"/>
	<path class="st5" d="M113.2,81.3c0,0.2-0.2,0.2-0.3,0.3c-1.8,1.2-3.6,2.3-5.3,3.5c-1.5,1-3.1,2-4.6,3c-0.3,0.2-0.4,0.2-0.6-0.1
		c-1.8-2.6-4.2-4.5-7.2-5.6c-2.2-0.8-4.5-1-6.8-0.7c-4.1,0.4-7.5,2.3-10.6,4.9c-1.1,0.9-2.1,1.9-2.9,3c-0.2,0.2-0.3,0.2-0.6,0.1
		c-2.8-1.8-5.6-3.5-8.4-5.3c-0.3-0.2-0.3-0.2-0.1-0.5c3.4-4.3,7.5-7.9,12.4-10.5c3.2-1.7,6.7-2.9,10.3-3.4c2.2-0.3,4.4-0.4,6.6-0.2
		c3.1,0.3,6,1.2,8.8,2.7c3.9,2.1,6.9,5,9.2,8.7C113.2,81.1,113.2,81.2,113.2,81.3z"/>
	<path class="st3" d="M141.3,72.2c-0.1,1.6-0.1,3.2-0.2,4.8c0,0.7,0,0.7-0.7,0.6c-5.5-0.8-10.6-2.7-15.3-5.6
		c-5-3.1-8.8-7.3-11.2-12.7c-1.4-3.2-2.2-6.5-2.1-10c0.1-3.9,1-7.5,2.8-11c0.2-0.4,0.2-0.4,0.6-0.2c3.5,1.8,7.1,3.6,10.6,5.3
		c0.2,0.1,0.3,0.2,0.2,0.4c-2.2,4.6-2,9.1,0.4,13.5c1.9,3.4,4.7,5.8,8.2,7.5c1.6,0.8,3.2,1.4,4.9,1.8c0.5,0.1,1.1,0.2,1.6,0.3
		c0.2,0,0.4,0.1,0.4,0.4C141.4,68.9,141.3,70.6,141.3,72.2C141.3,72.2,141.3,72.2,141.3,72.2z"/>
	<path class="st2" d="M82.6,43.3c0.9-0.4,1.7-1,2.4-1.7c2.5-2.3,4-5.3,4.8-8.6c0.8-3.8,0.4-7.5-0.8-11.2c-0.1-0.4-0.2-0.7-0.4-1.1
		c-0.1-0.3,0-0.4,0.2-0.5c1.5-0.8,3.1-1.6,4.6-2.4c1.4-0.7,2.8-1.5,4.2-2.2c0.3-0.2,0.3-0.2,0.5,0.2c0.8,1.8,1.3,3.6,1.8,5.5
		c0.8,3.2,1.2,6.4,1.1,9.7c-0.1,4.9-1.1,9.5-3.4,13.8c-2.5,4.8-6.1,8.4-10.9,10.8c-2.6,1.3-5.4,2.1-8.3,2.4c-0.5,0-1,0.1-1.5,0.1
		c-0.3,0-0.4-0.1-0.4-0.3c-0.1-1.1-0.1-2.2-0.2-3.3c-0.1-2.3-0.3-4.6-0.4-6.9c0-0.6-0.1-1.3-0.1-1.9c0-0.3,0.1-0.4,0.3-0.4
		c1.3,0,2.6-0.3,3.8-0.8c0.7-0.2,1.4-0.5,2-0.9C82.2,43.6,82.4,43.5,82.6,43.3z"/>
	<path class="st6" d="M82.6,43.3c-0.2,0.2-0.4,0.3-0.7,0.4c-3.4-2-6.9-4-10.3-6c0,0,0-0.1,0-0.1c0.6-0.2,1.3-0.5,1.9-0.7
		c0.2-0.1,0.3-0.2,0.2-0.4c-1.1-3.2-1.5-6.6-1.3-10c0.6-11.8,9-21.1,18.4-24.7c1.9-0.7,3.8-1.3,5.9-1.6c0.1,0,0.1,0,0.2,0
		c0.2,0,0.3,0,0.3,0.2c0,0.8,0.1,1.7,0.1,2.5c0.1,3.1,0.2,6.1,0.3,9.2c0,0.3-0.1,0.4-0.4,0.5c-4.3,0.9-7.9,3-10.6,6.5
		c-1.8,2.4-2.9,5-3.3,8c-0.3,2-0.1,4.1,0.4,6.1c0.1,0.3,0.2,0.3,0.5,0.2c0.9-0.3,1.7-0.6,2.6-0.8c0.1,0,0.2-0.1,0.3,0
		c0.1,0.1,0,0.2,0,0.3c-1.4,3.4-2.9,6.8-4.3,10.2C82.7,43.1,82.6,43.2,82.6,43.3z"/>
	<path class="st2" d="M98.4,84.9c-0.1,1.5-0.3,3-0.4,4.5c-0.1,1.5-0.3,2.9-0.4,4.4c-0.1,1-0.2,2-0.3,3c0,0.1,0,0.2-0.1,0.2
		c-0.1,0-0.1,0-0.2-0.1c-0.5-0.5-1-1-1.5-1.5c-0.2-0.2-0.3-0.2-0.6,0c-1.7,1.6-3.4,3.1-5.4,4.2c-3.1,1.8-6.5,3-10.1,3.5
		c-2.2,0.3-4.3,0.3-6.5,0.1c-2.3-0.2-4.5-0.6-6.7-1.4c-4.3-1.5-8.1-3.9-11.5-7c-0.7-0.7-1.4-1.4-2-2.1c-0.3-0.3-0.3-0.4,0.1-0.6
		c3.2-2,6.4-4.1,9.6-6.1c0.6-0.4,0.5-0.4,0.9,0.1c2.6,2.8,5.7,4.8,9.5,5.5c5.5,1.1,10.4-0.2,14.6-4c0.3-0.2,0.3-0.3,0-0.6
		c-0.5-0.5-0.9-1-1.4-1.5c-0.1-0.1-0.2-0.2-0.2-0.3c0-0.1,0.2-0.1,0.3-0.1c2-0.1,4.1-0.2,6.1-0.3c1.9-0.1,3.8-0.2,5.6-0.2
		C98.4,84.6,98.5,84.6,98.4,84.9z"/>
	<path class="st5" d="M135.7,42.9c-0.2,1.1-0.3,2.1-0.4,3.1c0,0.3,0,0.4,0.3,0.4c3.8,0.9,7.2,2.5,10.3,4.9c3.8,2.9,6.5,6.6,8.3,11
		c1.3,3,2,6.1,2.3,9.3c0.3,4.3-0.3,8.5-1.6,12.6c-0.1,0.2-0.1,0.3-0.3,0.1c-3.5-1.8-7-3.7-10.5-5.5c-0.3-0.1-0.3-0.3-0.2-0.5
		c0.7-2,1-4.1,0.9-6.3c-0.4-6.6-3.3-11.5-9.2-14.6c-0.5-0.3-1-0.5-1.6-0.6c-0.3-0.1-0.4-0.1-0.4,0.3c-0.1,0.6-0.2,1.2-0.3,1.8
		c0,0.1,0,0.1-0.1,0.2c-0.7-0.8-1.4-1.6-2-2.4c-1.9-2.3-3.9-4.6-5.8-6.9c-0.1-0.2-0.2-0.2,0-0.4c3.4-2.1,6.7-4.3,10.1-6.4
		C135.5,43,135.6,43,135.7,42.9z"/>
</g>
<g>
	<path class="st7" d="M16.9,137.8c-1.5,0-2.6-0.4-3.5-1.3s-1.3-2.1-1.3-3.6v-1c0-0.9,0.2-1.7,0.6-2.4c0.4-0.7,0.9-1.3,1.6-1.7
		c0.7-0.4,1.5-0.6,2.3-0.6c1.4,0,2.5,0.4,3.2,1.2c0.8,0.8,1.2,2,1.2,3.5v1.3h-6.7c0,0.9,0.3,1.5,0.8,2c0.5,0.5,1.1,0.7,2,0.7
		c0.8,0,1.5-0.2,2.1-0.7l0.3-0.3l1.2,1.4c-0.7,0.5-1.3,0.9-1.8,1.1C18.3,137.6,17.6,137.8,16.9,137.8z M16.6,129
		c-0.7,0-1.2,0.2-1.6,0.7c-0.4,0.4-0.7,1.1-0.7,1.8h4.6v-0.3c0-0.7-0.2-1.2-0.6-1.6C17.9,129.2,17.4,129,16.6,129z"/>
	<path class="st7" d="M26.5,134h-4v-1.7h4V134z"/>
	<path class="st7" d="M30.4,134v3.6h-2.1v-10.4h4c0.8,0,1.5,0.1,2,0.4c0.6,0.3,1,0.7,1.4,1.2c0.3,0.5,0.5,1.1,0.5,1.8
		c0,1-0.4,1.8-1,2.4c-0.7,0.6-1.7,0.9-2.9,0.9H30.4z M30.4,132.2h1.9c0.6,0,1-0.1,1.3-0.4c0.3-0.3,0.4-0.6,0.4-1.1
		c0-0.5-0.1-0.9-0.4-1.2c-0.3-0.3-0.7-0.5-1.2-0.5h-2L30.4,132.2L30.4,132.2z"/>
	<path class="st7" d="M41.9,137.6c-0.1-0.2-0.2-0.4-0.2-0.7c-0.5,0.6-1.1,0.8-1.9,0.8c-0.8,0-1.4-0.2-1.9-0.7s-0.7-1-0.7-1.6
		c0-0.8,0.3-1.4,0.9-1.9c0.6-0.4,1.5-0.7,2.6-0.7h0.9v-0.4c0-0.4-0.1-0.6-0.3-0.9s-0.5-0.3-0.9-0.3c-0.3,0-0.6,0.1-0.8,0.2
		c-0.2,0.2-0.3,0.4-0.3,0.7h-2c0-0.4,0.1-0.9,0.4-1.2s0.7-0.7,1.2-0.9c0.5-0.2,1.1-0.3,1.7-0.3c0.9,0,1.7,0.2,2.3,0.7
		c0.6,0.5,0.8,1.1,0.8,2v3.3c0,0.7,0.1,1.3,0.3,1.7v0.1L41.9,137.6L41.9,137.6z M40.2,136.2c0.3,0,0.6-0.1,0.8-0.2
		c0.3-0.1,0.4-0.3,0.6-0.5v-1.3h-0.8c-1,0-1.6,0.4-1.6,1.1l0,0.1c0,0.3,0.1,0.5,0.3,0.6C39.6,136.1,39.9,136.2,40.2,136.2z"/>
	<path class="st7" d="M48.1,134.7l1.4-4.8h2.2l-3.1,8.9l-0.2,0.4c-0.5,1-1.2,1.5-2.3,1.5c-0.3,0-0.6,0-0.9-0.1V139l0.3,0
		c0.4,0,0.7-0.1,0.9-0.2c0.2-0.1,0.3-0.3,0.4-0.6l0.2-0.6l-2.7-7.7h2.2L48.1,134.7z"/>
	<path class="st7" d="M54.5,129.9l0.1,0.9c0.5-0.7,1.3-1,2.2-1c1,0,1.7,0.4,2,1.2c0.5-0.8,1.3-1.2,2.3-1.2c0.8,0,1.5,0.2,1.9,0.7
		c0.4,0.5,0.6,1.2,0.6,2.2v4.9h-2.1v-4.9c0-0.4-0.1-0.8-0.3-0.9c-0.2-0.2-0.5-0.3-0.9-0.3c-0.6,0-1,0.3-1.3,0.9l0,5.3H57v-4.9
		c0-0.4-0.1-0.8-0.3-1c-0.2-0.2-0.5-0.3-0.9-0.3c-0.6,0-1,0.2-1.3,0.7v5.4h-2.1v-7.7H54.5z"/>
	<path class="st7" d="M68.7,137.7c-1.1,0-2-0.3-2.8-1c-0.7-0.7-1.1-1.6-1.1-2.8v-0.2c0-0.8,0.1-1.5,0.4-2.1s0.7-1.1,1.3-1.4
		c0.5-0.3,1.2-0.5,1.9-0.5c1.1,0,1.9,0.3,2.5,1c0.6,0.7,0.9,1.6,0.9,2.8v0.8h-4.9c0.1,0.5,0.3,0.9,0.6,1.2c0.3,0.3,0.8,0.5,1.3,0.5
		c0.8,0,1.4-0.3,1.9-0.9l1,1.1c-0.3,0.4-0.7,0.8-1.2,1C69.9,137.6,69.3,137.7,68.7,137.7z M68.4,131.4c-0.4,0-0.7,0.1-1,0.4
		c-0.3,0.3-0.4,0.7-0.5,1.2h2.8v-0.2c0-0.5-0.1-0.8-0.4-1.1C69.2,131.6,68.9,131.4,68.4,131.4z"/>
	<path class="st7" d="M74.9,129.9l0.1,0.9c0.5-0.7,1.3-1,2.2-1c0.8,0,1.4,0.2,1.8,0.7c0.4,0.5,0.6,1.2,0.6,2.1v5h-2v-4.9
		c0-0.4-0.1-0.7-0.3-0.9c-0.2-0.2-0.5-0.3-0.9-0.3c-0.6,0-1,0.2-1.3,0.7v5.4h-2v-7.7H74.9z"/>
	<path class="st7" d="M83.6,128v1.9h1.3v1.5h-1.3v3.8c0,0.3,0.1,0.5,0.2,0.6c0.1,0.1,0.3,0.2,0.6,0.2c0.2,0,0.4,0,0.6-0.1v1.6
		c-0.4,0.1-0.8,0.2-1.2,0.2c-1.4,0-2.2-0.7-2.2-2.2v-4.2h-1.1v-1.5h1.1V128H83.6z"/>
	<path class="st7" d="M90.2,135.5c0-0.2-0.1-0.4-0.4-0.6s-0.7-0.3-1.2-0.4c-1.8-0.4-2.7-1.2-2.7-2.3c0-0.7,0.3-1.2,0.9-1.7
		c0.6-0.5,1.3-0.7,2.2-0.7c1,0,1.8,0.2,2.3,0.7c0.6,0.5,0.9,1.1,0.9,1.8h-2c0-0.3-0.1-0.5-0.3-0.7c-0.2-0.2-0.5-0.3-0.9-0.3
		c-0.3,0-0.6,0.1-0.8,0.2c-0.2,0.2-0.3,0.4-0.3,0.6c0,0.2,0.1,0.4,0.3,0.6c0.2,0.1,0.6,0.3,1.1,0.4c0.5,0.1,0.9,0.2,1.3,0.3
		c1.1,0.4,1.6,1.1,1.6,2.1c0,0.7-0.3,1.3-0.9,1.7c-0.6,0.4-1.4,0.7-2.3,0.7c-0.6,0-1.2-0.1-1.7-0.3c-0.5-0.2-0.9-0.5-1.2-0.9
		c-0.3-0.4-0.4-0.8-0.4-1.3h1.9c0,0.4,0.1,0.6,0.4,0.8c0.2,0.2,0.6,0.3,1,0.3c0.4,0,0.7-0.1,0.9-0.2
		C90.1,135.9,90.2,135.7,90.2,135.5z"/>
</g>
<g>
	<path class="st2" d="M96.5,128.6c0.7-0.1,1.7-0.2,2.7-0.2c1.5,0,2.5,0.3,3.2,0.9c0.5,0.5,0.9,1.2,0.9,2.1c0,1.4-0.9,2.4-2.1,2.8v0
		c0.8,0.3,1.3,1.1,1.6,2.2c0.4,1.5,0.6,2.6,0.8,3h-1.5c-0.2-0.3-0.4-1.2-0.7-2.6c-0.3-1.5-0.9-2.1-2.2-2.1h-1.3v4.7h-1.4V128.6z
		 M97.9,133.6h1.4c1.5,0,2.5-0.8,2.5-2.1c0-1.4-1-2-2.5-2c-0.7,0-1.2,0.1-1.4,0.1V133.6z"/>
	<path class="st2" d="M106,135.7c0,1.9,1.3,2.7,2.7,2.7c1,0,1.6-0.2,2.2-0.4l0.2,1c-0.5,0.2-1.4,0.5-2.6,0.5c-2.4,0-3.8-1.6-3.8-3.9
		c0-2.4,1.4-4.2,3.7-4.2c2.6,0,3.2,2.2,3.2,3.7c0,0.3,0,0.5,0,0.7H106z M110.2,134.7c0-0.9-0.4-2.3-2-2.3c-1.4,0-2.1,1.3-2.2,2.3
		H110.2z"/>
	<path class="st2" d="M113.8,131.5l1.5,4.4c0.3,0.7,0.5,1.4,0.6,2h0c0.2-0.6,0.4-1.3,0.7-2l1.5-4.4h1.5l-3.1,7.8h-1.4l-3-7.8H113.8z
		"/>
	<path class="st2" d="M121.7,135.7c0,1.9,1.3,2.7,2.7,2.7c1,0,1.6-0.2,2.2-0.4l0.2,1c-0.5,0.2-1.4,0.5-2.6,0.5
		c-2.4,0-3.8-1.6-3.8-3.9c0-2.4,1.4-4.2,3.7-4.2c2.6,0,3.2,2.2,3.2,3.7c0,0.3,0,0.5,0,0.7H121.7z M125.9,134.7c0-0.9-0.4-2.3-2-2.3
		c-1.4,0-2.1,1.3-2.2,2.3H125.9z"/>
	<path class="st2" d="M129,133.7c0-0.8,0-1.5-0.1-2.1h1.3l0.1,1.3h0c0.4-0.7,1.3-1.5,2.6-1.5c1.1,0,2.8,0.6,2.8,3.3v4.7h-1.4v-4.5
		c0-1.3-0.5-2.3-1.8-2.3c-0.9,0-1.7,0.7-1.9,1.5c-0.1,0.2-0.1,0.4-0.1,0.7v4.7H129V133.7z"/>
	<path class="st2" d="M144.5,137.2c0,0.8,0,1.5,0.1,2.1h-1.3l-0.1-1.3h0c-0.4,0.6-1.2,1.5-2.6,1.5c-1.2,0-2.7-0.7-2.7-3.4v-4.6h1.4
		v4.3c0,1.5,0.5,2.5,1.7,2.5c1,0,1.6-0.7,1.9-1.3c0.1-0.2,0.1-0.5,0.1-0.7v-4.8h1.4V137.2z"/>
	<path class="st2" d="M147.7,135.7c0,1.9,1.3,2.7,2.7,2.7c1,0,1.6-0.2,2.2-0.4l0.2,1c-0.5,0.2-1.4,0.5-2.6,0.5
		c-2.4,0-3.8-1.6-3.8-3.9c0-2.4,1.4-4.2,3.7-4.2c2.6,0,3.2,2.2,3.2,3.7c0,0.3,0,0.5,0,0.7H147.7z M151.8,134.7c0-0.9-0.4-2.3-2-2.3
		c-1.4,0-2.1,1.3-2.2,2.3H151.8z"/>
	<path class="st2" d="M158.3,137.7c0.6,0.4,1.6,0.7,2.5,0.7c1.4,0,2.3-0.8,2.3-1.9c0-1-0.6-1.6-2.1-2.2c-1.8-0.6-2.9-1.6-2.9-3.1
		c0-1.7,1.4-3,3.5-3c1.1,0,1.9,0.3,2.4,0.5l-0.4,1.1c-0.4-0.2-1.1-0.5-2.1-0.5c-1.5,0-2.1,0.9-2.1,1.6c0,1,0.7,1.5,2.2,2.1
		c1.8,0.7,2.8,1.6,2.8,3.2c0,1.7-1.2,3.1-3.8,3.1c-1.1,0-2.2-0.3-2.8-0.7L158.3,137.7z"/>
	<path class="st2" d="M172.9,137.2c0,0.8,0,1.5,0.1,2.1h-1.3l-0.1-1.3h0c-0.4,0.6-1.2,1.5-2.6,1.5c-1.2,0-2.7-0.7-2.7-3.4v-4.6h1.4
		v4.3c0,1.5,0.5,2.5,1.7,2.5c1,0,1.6-0.7,1.9-1.3c0.1-0.2,0.1-0.5,0.1-0.7v-4.8h1.4V137.2z"/>
	<path class="st2" d="M175.3,134c0-0.9,0-1.7-0.1-2.4h1.2l0,1.5h0.1c0.4-1.1,1.2-1.7,2.2-1.7c0.2,0,0.3,0,0.4,0v1.3
		c-0.1,0-0.3,0-0.5,0c-1,0-1.7,0.8-1.9,1.8c0,0.2-0.1,0.4-0.1,0.7v4.2h-1.4V134z"/>
	<path class="st2" d="M181.2,135.7c0,1.9,1.3,2.7,2.7,2.7c1,0,1.6-0.2,2.2-0.4l0.2,1c-0.5,0.2-1.4,0.5-2.6,0.5
		c-2.4,0-3.8-1.6-3.8-3.9c0-2.4,1.4-4.2,3.7-4.2c2.6,0,3.2,2.2,3.2,3.7c0,0.3,0,0.5,0,0.7H181.2z M185.4,134.7c0-0.9-0.4-2.3-2-2.3
		c-1.4,0-2.1,1.3-2.2,2.3H185.4z"/>
</g>
</svg>
